<svg width="40" height="40" viewBox="0 0 40 40" fill="none" xmlns="http://www.w3.org/2000/svg">
<g clip-path="url(#clip0_183_563)">
<path d="M9.728 40H30.268C35.64 40 39.996 35.644 39.996 30.272V9.728C40 4.368 35.66 0.016 30.3 0H9.7C4.34 0.016 0 4.368 0 9.728V30.268C0 35.644 4.356 40 9.728 40Z" fill="#100943"/>
<path d="M30.3 0H20C20 11.044 28.956 20 40 20V9.728C40 4.368 35.66 0.016 30.3 0Z" fill="#ED143B"/>
<path d="M24.7079 19.088H12.8919V14.412H24.7079C25.3999 14.412 25.8799 14.532 26.1199 14.744C26.3599 14.956 26.5119 15.344 26.5119 15.912V17.592C26.5119 18.192 26.3639 18.58 26.1199 18.792C25.8799 19 25.3999 19.088 24.7079 19.088ZM25.5199 10H7.87988V30H12.8919V23.492H22.1279L26.5079 30H32.1199L27.2879 23.464C29.0679 23.2 29.8679 22.652 30.5279 21.756C31.1879 20.856 31.5199 19.416 31.5199 17.5V16C31.5199 14.86 31.3999 13.96 31.1879 13.272C30.9759 12.584 30.6199 11.984 30.1079 11.444C29.5679 10.932 28.9679 10.576 28.2479 10.336C27.5279 10.12 26.6279 10 25.5199 10Z" fill="#FAFAFA"/>
</g>
<defs>
<clipPath id="clip0_183_563">
<rect width="40" height="40" fill="white"/>
</clipPath>
</defs>
</svg>
