<svg width="40" height="40" viewBox="0 0 40 40" fill="none" xmlns="http://www.w3.org/2000/svg">
<g clip-path="url(#clip0_183_560)">
<path d="M0.254883 19.2599C0.254883 10.2986 0.254883 5.81788 3.03882 3.03394C5.82276 0.25 10.3034 0.25 19.2648 0.25H20.8489C29.8103 0.25 34.291 0.25 37.0749 3.03394C39.8588 5.81788 39.8588 10.2986 39.8588 19.2599V20.8441C39.8588 29.8054 39.8588 34.2861 37.0749 37.07C34.291 39.854 29.8103 39.854 20.8489 39.854H19.2648C10.3034 39.854 5.82276 39.854 3.03882 37.07C0.254883 34.2861 0.254883 29.8054 0.254883 20.8441V19.2599Z" fill="#0077FF"/>
<path d="M21.3274 28.7815C12.301 28.7815 7.15252 22.5934 6.93799 12.2964H11.4595C11.608 19.8541 14.9412 23.0554 17.5815 23.7155V12.2964H21.8391V18.8145C24.4463 18.534 27.1852 15.5637 28.1094 12.2964H32.3669C31.6573 16.3228 28.687 19.2931 26.5748 20.5142C28.687 21.5043 32.07 24.095 33.3572 28.7815H28.6705C27.6639 25.6462 25.1559 23.2205 21.8391 22.8904V28.7815H21.3274Z" fill="#FAFAFA"/>
</g>
<defs>
<clipPath id="clip0_183_560">
<rect width="40" height="40" fill="white"/>
</clipPath>
</defs>
</svg>
